<?xml version="1.0" encoding="UTF-8"?>
<svg version="1.1" xmlns="http://www.w3.org/2000/svg" width="512" height="512">
<path d="M0 0 C1.63309093 -0.00417981 3.26617895 -0.00966086 4.89926165 -0.01631981 C9.35827209 -0.03070842 13.81709665 -0.0265504 18.27611697 -0.019153 C23.0962963 -0.01440722 27.91643623 -0.02694366 32.73660278 -0.03717041 C42.16887874 -0.05433651 51.60108802 -0.05520291 61.03337554 -0.04995751 C68.70316225 -0.04591028 76.3729293 -0.04736593 84.04271507 -0.05270576 C85.68234457 -0.0538284 85.68234457 -0.0538284 87.35509789 -0.05497371 C89.57596551 -0.05650525 91.79683314 -0.05804359 94.01770075 -0.05958868 C114.82887802 -0.07330595 135.64001767 -0.06788159 156.45119407 -0.05640347 C175.47132249 -0.04647324 194.4913536 -0.05940951 213.51146702 -0.08333766 C233.06227401 -0.10774727 252.61303572 -0.11733186 272.16385764 -0.11068493 C283.13174659 -0.10719668 294.09956073 -0.10939867 305.06743813 -0.12693596 C314.40469083 -0.14168127 323.74181605 -0.142263 333.07906631 -0.12486505 C337.83843908 -0.11637164 342.59758433 -0.11416479 347.35694504 -0.1295166 C351.7225472 -0.14342339 356.08772823 -0.13852421 360.4533064 -0.11927737 C362.02386249 -0.11553531 363.59445281 -0.11838696 365.16497824 -0.12888902 C385.88154904 -0.25745587 403.33778018 5.91590528 418.62419128 20.38768005 C423.83434634 25.72855585 427.53892735 31.67153485 430.93669128 38.26268005 C431.42528625 39.19769348 431.42528625 39.19769348 431.92375183 40.15159607 C437.3747468 51.2761624 438.06296219 62.58622921 438.01187134 74.76348877 C438.01605115 76.3965797 438.02153219 78.02966772 438.02819115 79.66275042 C438.04257976 84.12176085 438.03842174 88.58058542 438.03102434 93.03960574 C438.02627856 97.85978507 438.038815 102.679925 438.04904175 107.50009155 C438.06620785 116.93236751 438.06707425 126.36457679 438.06182884 135.79686431 C438.05778162 143.46665102 438.05923727 151.13641807 438.0645771 158.80620384 C438.06532552 159.89929017 438.06607395 160.9923765 438.06684505 162.11858666 C438.06837658 164.33945428 438.06991493 166.56032191 438.07146002 168.78118952 C438.08517729 189.59236679 438.07975293 210.40350644 438.0682748 231.21468284 C438.05834458 250.23481126 438.07128085 269.25484237 438.095209 288.27495579 C438.11961861 307.82576278 438.1292032 327.37652449 438.12255627 346.92734641 C438.11906802 357.89523536 438.12127001 368.8630495 438.1388073 379.8309269 C438.15355261 389.1681796 438.15413434 398.50530482 438.13673639 407.84255508 C438.12824298 412.60192785 438.12603613 417.3610731 438.14138794 422.12043381 C438.15529472 426.48603597 438.15039554 430.851217 438.1311487 435.21679517 C438.12740664 436.78735126 438.1302583 438.35794158 438.14076035 439.92846701 C438.27271023 461.19016003 431.7270297 478.93864477 416.62419128 494.38768005 C400.94936709 508.34471529 383.76415663 512.86143599 363.24838257 512.77536011 C361.61529164 512.77953992 359.98220362 512.78502096 358.34912091 512.79167992 C353.89011048 512.80606853 349.43128592 512.80191051 344.9722656 512.79451311 C340.15208627 512.78976733 335.33194634 512.80230377 330.51177979 512.81253052 C321.07950383 512.82969662 311.64729455 512.83056302 302.21500703 512.82531761 C294.54522032 512.82127039 286.87545327 512.82272604 279.2056675 512.82806587 C277.566038 512.82918851 277.566038 512.82918851 275.89328468 512.83033382 C273.67241705 512.83186535 271.45154943 512.8334037 269.23068181 512.83494879 C248.41950455 512.84866606 227.6083649 512.8432417 206.7971885 512.83176357 C187.77706008 512.82183335 168.75702896 512.83476962 149.73691555 512.85869776 C130.18610856 512.88310738 110.63534685 512.89269197 91.08452493 512.88604504 C80.11663598 512.88255679 69.14882184 512.88475878 58.18094444 512.90229607 C48.84369174 512.91704138 39.50656652 512.91762311 30.16931625 512.90022516 C25.40994349 512.89173174 20.65079824 512.8895249 15.89143753 512.90487671 C11.52583537 512.91878349 7.16065434 512.91388431 2.79507617 512.89463747 C1.22452008 512.89089541 -0.34607024 512.89374707 -1.91659568 512.90424912 C-23.17828869 513.036199 -40.92677344 506.49051847 -56.37580872 491.38768005 C-70.33284395 475.71285586 -74.84956465 458.5276454 -74.76348877 438.01187134 C-74.76766858 436.37878041 -74.77314963 434.74569239 -74.77980858 433.11260968 C-74.79419719 428.65359925 -74.79003917 424.19477469 -74.78264177 419.73575437 C-74.77789599 414.91557504 -74.79043243 410.0954351 -74.80065918 405.27526855 C-74.81782528 395.8429926 -74.81869168 386.41078332 -74.81344628 376.9784958 C-74.80939905 369.30870909 -74.8108547 361.63894204 -74.81619453 353.96915627 C-74.81694296 352.87606994 -74.81769138 351.78298361 -74.81846248 350.65677345 C-74.81999402 348.43590582 -74.82153236 346.2150382 -74.82307745 343.99417058 C-74.83679472 323.18299331 -74.83137036 302.37185367 -74.81989224 281.56067727 C-74.80996201 262.54054885 -74.82289828 243.52051773 -74.84682643 224.50040432 C-74.87123604 204.94959733 -74.88082063 185.39883562 -74.8741737 165.8480137 C-74.87068545 154.88012475 -74.87288744 143.91231061 -74.89042473 132.94443321 C-74.90517004 123.60718051 -74.90575177 114.27005529 -74.88835382 104.93280502 C-74.87986041 100.17343226 -74.87765356 95.41428701 -74.89300537 90.6549263 C-74.90691216 86.28932414 -74.90201297 81.92414311 -74.88276614 77.55856494 C-74.87902408 75.98800885 -74.88187573 74.41741853 -74.89237779 72.84689309 C-75.02094464 52.1303223 -68.84758349 34.67409116 -54.37580872 19.38768005 C-49.03493292 14.17752499 -43.09195392 10.47294399 -36.50080872 7.07518005 C-35.87746643 6.74945007 -35.25412415 6.42372009 -34.6118927 6.08811951 C-23.48732637 0.63712453 -12.17725956 -0.05109085 0 0 Z " fill="#E65300" transform="translate(74.37580871582031,-0.3876800537109375)"/>
<path d="M0 0 C0.90011336 -0.00782324 1.80022673 -0.01564648 2.72761625 -0.02370679 C3.712528 -0.01701463 4.69743975 -0.01032246 5.7121973 -0.00342751 C7.28624154 -0.01044746 7.28624154 -0.01044746 8.89208466 -0.01760924 C12.41973835 -0.02960618 15.94700693 -0.02008341 19.47466373 -0.01066017 C21.99913097 -0.0147238 24.52359643 -0.0200645 27.04805851 -0.02659035 C33.20012501 -0.03887084 39.35204814 -0.03704422 45.50411659 -0.02835242 C50.50398793 -0.02158063 55.5038285 -0.02065697 60.50370312 -0.02392387 C61.21498538 -0.02438357 61.92626765 -0.02484327 62.65910392 -0.0253169 C64.10401814 -0.02627607 65.54893234 -0.02724871 66.99384654 -0.02823468 C80.54781539 -0.03679244 94.1017234 -0.02694872 107.65568227 -0.01083358 C119.28661674 0.00256708 130.91746137 0.00024436 142.5483942 -0.01358986 C156.05190465 -0.02964385 169.55536173 -0.03596538 183.05888039 -0.02675307 C184.49882129 -0.02579741 185.9387622 -0.0248543 187.37870312 -0.02392387 C188.44144236 -0.02322963 188.44144236 -0.02322963 189.52565108 -0.02252137 C194.51923694 -0.01993072 199.51278897 -0.02430415 204.50636959 -0.03136253 C211.22783938 -0.04065431 217.94911319 -0.0340401 224.67057514 -0.01667976 C227.14052581 -0.01270602 229.61049072 -0.01386405 232.08043575 -0.02046776 C235.44616529 -0.02863813 238.81134665 -0.01841562 242.17704105 -0.00342751 C243.65106259 -0.01346575 243.65106259 -0.01346575 245.15486234 -0.02370679 C250.08011075 0.01897683 253.53207839 0.12083454 257.508111 3.37752342 C260.08039504 6.80565932 259.59349809 9.90845054 259.258111 14.05721092 C259.2058234 14.7439489 259.1535358 15.43068687 259.09966373 16.13823509 C258.97977503 17.68955863 258.85434358 19.24046025 258.72441959 20.79097557 C258.4916317 23.57457752 258.27426238 26.35912285 258.05889225 29.14412498 C257.55629434 35.5981021 257.03307991 42.05033338 256.508111 48.50252342 C256.23986584 51.81007339 255.97205128 55.11765668 255.70513248 58.42531395 C255.53396569 60.54247645 255.36162847 62.6595447 255.18804264 64.77651024 C254.83110087 69.16372789 254.48466231 73.54844451 254.23076725 77.94295311 C254.15729069 79.19753319 254.08381413 80.45211327 254.008111 81.74471092 C253.9565485 82.78482323 253.904986 83.82493553 253.851861 84.89656639 C253.508111 87.37752342 253.508111 87.37752342 251.508111 90.37752342 C249.56865788 90.74983788 249.56865788 90.74983788 247.226861 90.74080467 C246.38510319 90.74016014 245.54334538 90.73951561 244.67607975 90.73885155 C243.79565006 90.72273827 242.91522038 90.70662498 242.008111 90.69002342 C240.68746647 90.69485741 240.68746647 90.69485741 239.34014225 90.69978905 C232.77508132 90.64449374 232.77508132 90.64449374 230.508111 88.37752342 C230.23687077 85.5552578 230.23687077 85.5552578 230.19951725 81.97127342 C230.17438053 80.6693203 230.14924381 79.36736717 230.12334538 78.02596092 C230.09485308 75.96380043 230.07083406 73.9017071 230.05181217 71.83943748 C229.90704358 58.69890403 228.48420937 48.43345317 219.508111 38.37752342 C207.39526169 27.56538277 194.2751775 27.91326802 178.9065485 27.94392967 C176.89976164 27.9393623 174.89297634 27.93405508 172.88619328 27.92804527 C168.69532224 27.9191436 164.5046421 27.92150528 160.31377506 27.9314785 C154.95620905 27.94298919 149.5993001 27.92270932 144.24182034 27.89356136 C140.1032735 27.87518015 135.96488377 27.87549525 131.82630634 27.88119888 C129.85123743 27.88135173 127.87615762 27.87533792 125.90112782 27.86290741 C123.13738232 27.84795542 120.37484711 27.85870362 117.61113834 27.87581444 C116.80469379 27.86614647 115.99824924 27.8564785 115.16736698 27.84651756 C108.64096099 27.93071952 103.45614989 29.83355936 98.4846735 34.12361717 C98.03865788 34.68178123 97.59264225 35.2399453 97.133111 35.81502342 C96.67162663 36.37060936 96.21014225 36.9261953 95.7346735 37.49861717 C92.20336181 42.90804687 92.20402822 47.85647868 92.18926334 54.12483788 C92.17921772 55.10092506 92.1691721 56.07701225 92.15882206 57.08267784 C92.12798452 60.30204758 92.11095316 63.52133413 92.0940485 66.74080467 C92.07533733 68.9756905 92.05576396 71.21056925 92.0353632 73.44544029 C91.9840307 79.32260026 91.94441082 85.19978314 91.90721989 91.07704735 C91.86718736 97.07635228 91.81609156 103.07556183 91.7659235 109.07478905 C91.6691509 120.84230018 91.58475026 132.60986515 91.508111 144.37752342 C99.94103258 144.33931622 108.37342833 144.27973895 116.80598354 144.19362068 C120.72249635 144.15427854 124.63878879 144.12202574 128.55547428 144.10652733 C132.34238421 144.09127236 136.12868776 144.05667334 139.91532612 144.0092144 C141.35279 143.9944909 142.79034049 143.98648765 144.22787952 143.98563957 C154.2247232 143.97382144 164.48609883 143.33686986 172.12920475 135.99861717 C179.18215735 127.70690236 180.19762149 120.1353473 180.19487858 109.55135155 C180.19898746 108.66898827 180.20309635 107.78662498 180.20732975 106.87752342 C180.19532536 106.08346092 180.18332096 105.28939842 180.1709528 104.47127342 C180.59921009 101.81179875 181.35270524 100.95619156 183.508111 99.37752342 C186.10853055 99.07882658 188.41510259 98.95807185 191.008111 99.00252342 C191.68486881 98.99092186 192.36162663 98.9793203 193.05889225 98.96736717 C197.98672846 98.99652597 197.98672846 98.99652597 200.20151901 100.61497211 C201.87994908 102.87912124 201.882906 104.17278721 201.8823328 106.97678185 C201.88934711 107.92040077 201.89636143 108.8640197 201.90358829 109.83623314 C201.89594456 110.86958794 201.88830082 111.90294273 201.88042545 112.96761131 C201.88407612 114.05723671 201.88772678 115.14686211 201.89148808 116.26950645 C201.89961013 119.8798882 201.88597018 123.48982351 201.87139225 127.10017967 C201.87087388 129.6021684 201.87139068 132.10415754 201.87290287 134.60614586 C201.87281307 139.85266187 201.86270503 145.09906174 201.84429264 150.345541 C201.82311395 156.41509486 201.81961745 162.48445955 201.8258546 168.55404288 C201.83154452 174.38945428 201.82580357 180.22479783 201.81468105 186.06019974 C201.81082152 188.54540233 201.80968394 191.03061065 201.8112669 193.51581573 C201.81163612 196.98293231 201.79905784 200.44975714 201.7827692 203.91683006 C201.78524662 204.95220909 201.78772404 205.98758812 201.79027653 207.05434227 C201.78319172 207.99514137 201.77610691 208.93594048 201.76880741 209.90524864 C201.76572811 211.13552835 201.76572811 211.13552835 201.76258659 212.39066219 C201.508111 214.37752342 201.508111 214.37752342 199.508111 216.37752342 C196.63469039 216.57609314 193.87949112 216.65581288 191.008111 216.62752342 C190.22307194 216.6352578 189.43803288 216.64299217 188.62920475 216.65096092 C182.76141887 216.6308313 182.76141887 216.6308313 180.508111 214.37752342 C180.3994973 212.6271718 180.30247339 210.87478875 180.28325748 209.12117577 C180.17106679 199.66883715 178.42413296 191.47599569 171.61357975 184.41267967 C162.66070384 177.19033993 153.29857007 176.9135936 142.289361 176.86580467 C140.82104354 176.84893532 139.35274031 176.83078207 137.88445377 176.81140709 C134.04424841 176.76414538 130.20410082 176.73418277 126.36370182 176.70796776 C122.43515971 176.67804105 118.5068162 176.63155273 114.5784235 176.5865078 C106.8884184 176.50074631 99.19839843 176.43328136 91.508111 176.37752342 C91.54620981 189.13025835 91.60563306 201.88270066 91.69201374 214.63520527 C91.73146288 220.55721621 91.76366412 226.47907901 91.77910709 232.40120506 C91.79429028 238.12020288 91.82876608 243.83879338 91.87642002 249.55760956 C91.89121655 251.7355558 91.89915102 253.91356021 91.89999485 256.09155655 C91.90237139 259.15077692 91.92950737 262.20887792 91.96221256 265.26790428 C91.9571822 266.16126991 91.95215183 267.05463554 91.94696903 267.97507286 C92.05943863 274.80897489 93.49428957 281.12528779 98.25793171 286.2657671 C104.33134196 291.841038 109.78526982 292.67638789 117.78960514 292.66805077 C118.71715611 292.67476799 119.64470707 292.68148521 120.60036564 292.68840599 C123.66472086 292.70739022 126.72885688 292.71131114 129.79326725 292.71346092 C131.93213839 292.71989111 134.07100866 292.72661964 136.20987797 292.73363304 C140.69627258 292.74560871 145.1825902 292.74931382 149.66899967 292.74812889 C155.39284128 292.74792628 161.11618317 292.77516776 166.83990669 292.80967331 C171.26083443 292.8320174 175.68164363 292.83596405 180.10262203 292.83490944 C182.21115615 292.83725643 184.31969399 292.84602863 186.42817211 292.86157417 C203.39038402 292.97487194 216.51701362 291.50994132 229.508111 279.53377342 C237.70515759 270.91274167 240.55260075 259.50265297 243.9534235 248.41267967 C245.51010849 243.33709338 247.14851323 238.29114519 248.820611 233.25252342 C249.07512028 232.47642723 249.32962955 231.70033104 249.59185123 230.90071678 C251.38919836 225.49643606 251.38919836 225.49643606 252.508111 224.37752342 C253.98463764 224.27871545 255.46578336 224.24673097 256.945611 224.24471092 C257.84022038 224.24342186 258.73482975 224.2421328 259.6565485 224.24080467 C260.59756413 224.24467186 261.53857975 224.24853905 262.508111 224.25252342 C263.44912663 224.24865623 264.39014225 224.24478905 265.3596735 224.24080467 C266.70158756 224.24273827 266.70158756 224.24273827 268.070611 224.24471092 C268.89690006 224.24583885 269.72318913 224.24696678 270.57451725 224.24812889 C272.508111 224.37752342 272.508111 224.37752342 273.508111 225.37752342 C273.73831866 230.13514848 273.58580653 234.44087595 272.648736 239.10799217 C271.31283233 246.18774795 270.36054359 253.31487552 269.39183903 260.45168114 C268.84697366 264.46037049 268.29217904 268.46768881 267.73857975 272.47517967 C267.63088261 273.25594872 267.52318546 274.03671776 267.41222477 274.84114647 C264.90704352 292.99200296 264.90704352 292.99200296 263.508111 301.37752342 C263.33481266 302.41634666 263.33481266 302.41634666 263.15801334 303.47615623 C261.06561929 315.58399051 261.06561929 315.58399051 256.508111 319.37752342 C254.17715388 320.54300198 252.82476583 320.50581994 250.2282896 320.5117445 C248.87271747 320.51843127 248.87271747 320.51843127 247.48976004 320.52525312 C245.99095787 320.52497657 245.99095787 320.52497657 244.46187687 320.52469444 C242.8770869 320.53020947 242.8770869 320.53020947 241.26028097 320.53583592 C237.69656454 320.54690738 234.13287724 320.55072243 230.56914616 320.55452538 C228.02364858 320.5607873 225.47815193 320.56743386 222.93265629 320.5744381 C215.27749367 320.59368988 207.62233617 320.60426909 199.96715552 320.61316589 C196.36442641 320.61754695 192.76169877 320.62291418 189.15897083 320.62815475 C177.18694266 320.64516679 165.21491541 320.65966222 153.24287701 320.6669035 C150.13532478 320.66881346 147.02777257 320.67073379 143.92022038 320.67268944 C143.14783139 320.67317318 142.37544241 320.67365692 141.5796477 320.67415532 C129.06000294 320.68246036 116.54045358 320.70780534 104.02085049 320.74027012 C91.17478496 320.77331063 78.32876796 320.79134947 65.4826597 320.79454774 C58.26692787 320.79671549 51.05133521 320.80550279 43.83564472 320.83100891 C37.0509908 320.85493572 30.26663116 320.85856059 23.48192883 320.84824753 C20.98736012 320.84774981 18.49277943 320.85413912 15.9982481 320.86780357 C12.60129732 320.88537496 9.20526218 320.87848872 5.80831242 320.86527061 C4.31620241 320.88172448 4.31620241 320.88172448 2.79394877 320.89851075 C-3.86120774 320.83568175 -3.86120774 320.83568175 -7.10330296 318.48046207 C-8.67898046 316.0941835 -9.00604429 314.81143808 -9.023139 311.97127342 C-9.02829525 311.14498436 -9.0334515 310.3186953 -9.038764 309.46736717 C-9.02329525 308.61271873 -9.0078265 307.7580703 -8.991889 306.87752342 C-9.00735775 306.02287498 -9.0228265 305.16822655 -9.038764 304.28767967 C-9.0160872 300.65372258 -8.8492308 298.06496103 -7.15985775 294.81502342 C-2.01551861 292.04325651 4.01896729 292.8672088 9.73662663 292.88924217 C16.92018469 292.78641961 23.43923873 291.89559605 29.05913639 287.03645897 C34.88816744 280.55820521 35.95308784 274.14230979 35.89579105 265.81992149 C35.90117659 264.87628445 35.90656213 263.93264741 35.91211087 262.9604153 C35.9263824 259.80838323 35.9192886 256.65677158 35.91216373 253.50472069 C35.9178677 251.24083176 35.92483206 248.97694571 35.93296146 246.71306419 C35.95090466 240.570534 35.94972229 234.42814657 35.94401908 228.28559804 C35.94092903 223.15627289 35.94701762 218.02697523 35.95305783 212.897654 C35.96790813 200.10506026 35.96428633 187.31256673 35.95219452 174.51997691 C35.94226239 163.41950313 35.95520381 152.31919605 35.97912871 141.21874798 C36.00353241 129.80985725 36.01272499 118.40107353 36.00647599 106.99215168 C36.00310474 100.59127053 36.00553285 94.19052711 36.02272701 87.78966522 C36.03818973 81.77068803 36.0342477 75.75202923 36.01542187 69.73306465 C36.01173422 67.5256036 36.01484951 65.31811899 36.02530766 63.11067963 C36.03850675 60.09412246 36.02697898 57.07862098 36.00931644 54.06210899 C36.01892145 53.19137751 36.02852646 52.32064602 36.03842252 51.42352873 C35.95766204 44.7065035 34.16346658 39.51787545 29.7971735 34.35408592 C28.97346256 33.68506248 28.97346256 33.68506248 28.133111 33.00252342 C27.58912663 32.54103905 27.04514225 32.07955467 26.4846735 31.60408592 C19.52539127 27.28547995 11.64583131 28.02621855 3.742486 27.98689842 C2.74475163 27.9636953 1.74701725 27.94049217 0.7190485 27.91658592 C-0.18538998 27.90836815 -1.08982845 27.90015038 -2.02167416 27.89168358 C-5.30357395 27.20857615 -6.48624126 26.029257 -8.491889 23.37752342 C-9.00946712 21.13509178 -9.00946712 21.13509178 -9.023139 18.71736717 C-9.02829525 17.8414492 -9.0334515 16.96553123 -9.038764 16.0630703 C-9.01556087 14.70278709 -9.01556087 14.70278709 -8.991889 13.31502342 C-9.00735775 12.40430077 -9.0228265 11.49357811 -9.038764 10.5552578 C-9.03360775 9.68062889 -9.0284515 8.80599998 -9.023139 7.90486717 C-9.01637142 6.70978539 -9.01637142 6.70978539 -9.00946712 5.49056053 C-7.91651399 1.02852779 -4.18801571 0.002627 0 0 Z " fill="#FEFEFE" transform="translate(123.49188899993896,95.62247657775879)"/>
</svg>
