<?xml version="1.0" encoding="UTF-8"?>
<svg version="1.1" xmlns="http://www.w3.org/2000/svg" width="200" height="78">
<path d="M0 0 C0.99 0 1.98 0 3 0 C3.33 4.95 3.66 9.9 4 15 C4.66 15 5.32 15 6 15 C6 10.38 6 5.76 6 1 C7.32 1 8.64 1 10 1 C10.33 3.97 10.66 6.94 11 10 C11.70125 9.319375 12.4025 8.63875 13.125 7.9375 C16 6 16 6 19.1875 6.125 C22 7 22 7 24 9 C24.625 11.125 24.625 11.125 25 13 C25.37125 12.030625 25.7425 11.06125 26.125 10.0625 C28 7 28 7 30.9375 6 C34.01111206 6 35.46280125 6.34106236 38 8 C38 8.66 38 9.32 38 10 C38.66 10 39.32 10 40 10 C40.33 9.01 40.66 8.02 41 7 C44.25 6.25 44.25 6.25 48 6 C50.4375 7.9375 50.4375 7.9375 52 10 C52.70125 9.319375 53.4025 8.63875 54.125 7.9375 C57 6 57 6 60.1875 6.125 C63 7 63 7 65 9 C65.55021834 15.05240175 65.55021834 15.05240175 63.875 17.9375 C61.214973 19.44484863 58.99793795 19.19986253 56 19 C56 20.98 56 22.96 56 25 C54.515 25.495 54.515 25.495 53 26 C52.01 21.545 52.01 21.545 51 17 C50.34 17.66 49.68 18.32 49 19 C44.76036719 19.31404687 41.63465602 19.32617985 38 17 C37.34 17.66 36.68 18.32 36 19 C32.875 19.125 32.875 19.125 30 19 C30 20.98 30 22.96 30 25 C28.68 25 27.36 25 26 25 C26 23.02 26 21.04 26 19 C24.82904785 19.01047363 23.6580957 19.02094727 22.45166016 19.03173828 C18.11689295 19.06787497 13.78213911 19.09087733 9.44726562 19.10986328 C7.56931318 19.11993534 5.69137647 19.13359362 3.81347656 19.15087891 C1.1177991 19.17507453 -1.57767146 19.18647083 -4.2734375 19.1953125 C-5.11619232 19.20563507 -5.95894714 19.21595764 -6.82723999 19.22659302 C-8.88621247 19.22699144 -10.94467935 19.12257588 -13 19 C-15 17 -15 17 -15.375 13.0625 C-15.29026119 10.14960354 -15.22490881 9.28546119 -13.375 6.9375 C-10.12721302 5.65547882 -8.30703161 5.94456438 -5 7 C-4.01 8.32 -3.02 9.64 -2 11 C-1.34 7.37 -0.68 3.74 0 0 Z M-10 10 C-10.33 11.65 -10.66 13.3 -11 15 C-9.35 14.67 -7.7 14.34 -6 14 C-6.66 12.68 -7.32 11.36 -8 10 C-8.66 10 -9.32 10 -10 10 Z M17 10 C16.34 11.32 15.68 12.64 15 14 C17.475 14.495 17.475 14.495 20 15 C19.67 13.35 19.34 11.7 19 10 C18.34 10 17.68 10 17 10 Z M31 10 C30.67 11.65 30.34 13.3 30 15 C31.65 14.67 33.3 14.34 35 14 C34.34 12.68 33.68 11.36 33 10 C32.34 10 31.68 10 31 10 Z M58 10 C57.34 11.32 56.68 12.64 56 14 C58.475 14.495 58.475 14.495 61 15 C60.67 13.35 60.34 11.7 60 10 C59.34 10 58.68 10 58 10 Z M45 10 C44.01 10.495 44.01 10.495 43 11 C43.33 12.32 43.66 13.64 44 15 C45.32 14.67 46.64 14.34 48 14 C48 13.01 48 12.02 48 11 C47.01 10.67 46.02 10.34 45 10 Z " fill="#12C1AC" transform="translate(106,26)"/>
<path d="M0 0 C4.39177163 2.01317217 5.88011388 4.01210608 7.6875 8.4375 C8.08324219 9.38496094 8.47898438 10.33242188 8.88671875 11.30859375 C9.25410156 12.19675781 9.62148438 13.08492187 10 14 C10.38027344 14.70253906 10.76054688 15.40507813 11.15234375 16.12890625 C12.57925668 19.27863571 11.81663511 21.73345957 11 25 C9.10888889 27.3181362 7.66171969 28.66914015 5 30 C4.54625 30.969375 4.0925 31.93875 3.625 32.9375 C2 36 2 36 0.3125 37.4375 C-3.36043414 38.33091641 -6.28758221 37.71853247 -10 37 C-10.66 36.34 -11.32 35.68 -12 35 C-14.06670984 34.46972668 -14.06670984 34.46972668 -16.375 34.125 C-19.20006244 33.51540521 -21.04264478 32.9750372 -23.5625 31.5 C-25.53877944 28.06299228 -25.21459557 25.23274037 -24.9453125 21.33984375 C-24.79766346 18.72380541 -24.79766346 18.72380541 -27 16 C-27.43461989 12.08842103 -27.33090683 9.6918961 -25.625 6.125 C-22.19988038 3.35228411 -19.68731271 3.45327565 -15.38671875 3.24609375 C-9.465444 2.63555315 -6.53956835 -1.2633257 0 0 Z M-9.375 6.0625 C-12.93412359 8.68947217 -14.76240739 7.61637711 -19 7 C-21.62716577 8.45997987 -21.62716577 8.45997987 -23 11 C-23.08805146 13.6433774 -23.08805146 13.6433774 -22 16 C-19.18490007 18.2773501 -19.18490007 18.2773501 -16 18 C-16 18.99 -16 19.98 -16 21 C-17.65 21 -19.3 21 -21 21 C-21.33397787 23.87413125 -21.33397787 23.87413125 -21 27 C-19.2890789 28.97098426 -19.2890789 28.97098426 -17 30 C-16.01 30 -15.02 30 -14 30 C-13.731875 28.865625 -13.46375 27.73125 -13.1875 26.5625 C-12.5996875 24.7990625 -12.5996875 24.7990625 -12 23 C-11.01 22.67 -10.02 22.34 -9 22 C-9.226875 23.258125 -9.45375 24.51625 -9.6875 25.8125 C-10.12966736 29.05403969 -10.12966736 29.05403969 -8.875 32 C-6.33120951 33.35668826 -4.84118745 33.4972078 -2 33 C-0.09798258 31.26961928 -0.09798258 31.26961928 1 29 C1 28.01 1 27.02 1 26 C1.78375 25.896875 2.5675 25.79375 3.375 25.6875 C6.33045181 25.22404978 6.33045181 25.22404978 8 22 C7.6878236 19.35367713 7.6878236 19.35367713 7 17 C6.401875 17.639375 5.80375 18.27875 5.1875 18.9375 C3 21 3 21 0 22 C0.30035156 21.49210937 0.60070312 20.98421875 0.91015625 20.4609375 C2.79293229 17.05279375 3.98660094 14.69675125 4.0625 10.75 C2.69536696 7.21153802 1.25086195 5.92096388 -2 4 C-5.60512402 3.2789752 -6.57309424 3.62926605 -9.375 6.0625 Z " fill="#12C2AC" transform="translate(54,20)"/>
<path d="M0 0 C0.99 0.33 1.98 0.66 3 1 C3.33 3.31 3.66 5.62 4 8 C4.66 8 5.32 8 6 8 C6.33 6.02 6.66 4.04 7 2 C7.99 2 8.98 2 10 2 C10.33 4.31 10.66 6.62 11 9 C11.99 9 12.98 9 14 9 C14.33 6.03 14.66 3.06 15 0 C15.99 0 16.98 0 18 0 C18.05391993 1.79133978 18.09275571 3.58313899 18.125 5.375 C18.14820312 6.37273438 18.17140625 7.37046875 18.1953125 8.3984375 C18 11 18 11 16 13 C13.45151644 13.22503811 11.04736331 13.32440357 8.5 13.3125 C7.81035156 13.32861328 7.12070313 13.34472656 6.41015625 13.36132812 C4.40625 13.36328125 4.40625 13.36328125 1 13 C-1.11295256 9.83057116 -1.25250929 9.00370047 -1.1875 5.375 C-1.17783203 4.18003906 -1.17783203 4.18003906 -1.16796875 2.9609375 C-1 1 -1 1 0 0 Z " fill="#12C1AB" transform="translate(72,32)"/>
</svg>
