<svg width="279" height="279" viewBox="0 0 279 279" fill="none" xmlns="http://www.w3.org/2000/svg">
<g clip-path="url(#clip0_302_3)">
<rect width="279" height="279" rx="30" fill="black"/>
<path d="M55.9453 128.624C55.9453 132.123 54.8573 135.152 52.6813 137.712C50.5053 140.229 47.6253 141.893 44.0413 142.704L54.7933 158H45.7053L35.3373 143.216H28.2973V158H20.3613V114.032H39.4973C42.5693 114.032 45.3639 114.651 47.8813 115.888C50.3986 117.125 52.3613 118.853 53.7693 121.072C55.2199 123.291 55.9453 125.808 55.9453 128.624ZM28.2973 135.856H38.5373C41.3106 135.856 43.5293 135.216 45.1933 133.936C46.8999 132.613 47.7533 130.843 47.7533 128.624C47.7533 126.405 46.8999 124.656 45.1933 123.376C43.5293 122.053 41.3106 121.392 38.5373 121.392H28.2973V135.856ZM78.6778 152.496C80.3418 152.496 82.0271 152.176 83.7338 151.536C85.4404 150.896 86.8271 150.064 87.8938 149.04L92.3738 153.648C90.9658 155.141 88.9818 156.379 86.4218 157.36C83.8618 158.299 81.3658 158.768 78.9338 158.768C75.7764 158.768 72.8538 158.021 70.1658 156.528C67.5204 155.035 65.4084 152.965 63.8298 150.32C62.2938 147.675 61.5258 144.688 61.5258 141.36C61.5258 138.075 62.2724 135.131 63.7658 132.528C65.2591 129.925 67.3071 127.877 69.9098 126.384C72.5124 124.891 75.3711 124.144 78.4858 124.144C83.5631 124.144 87.5311 125.893 90.3898 129.392C93.2911 132.891 94.7418 137.669 94.7418 143.728H69.0778C69.5044 146.373 70.5711 148.507 72.2778 150.128C74.0271 151.707 76.1604 152.496 78.6778 152.496ZM78.5498 130.416C76.2031 130.416 74.1764 131.163 72.4698 132.656C70.7631 134.107 69.6538 136.069 69.1418 138.544H87.1898C86.8058 136.112 85.8671 134.149 84.3738 132.656C82.9231 131.163 80.9818 130.416 78.5498 130.416ZM110.924 121.328V132.464H133.58V139.76H110.924V158H102.924V114.032H136.012V121.328H110.924ZM151.203 131.184C152.27 129.008 153.849 127.301 155.939 126.064C158.03 124.784 160.398 124.144 163.043 124.144V130.8C159.502 130.8 156.643 131.76 154.467 133.68C152.291 135.6 151.203 138.139 151.203 141.296V158H143.395V124.912H151.203V131.184ZM185.377 158.768C182.177 158.768 179.212 158 176.481 156.464C173.751 154.885 171.575 152.773 169.953 150.128C168.375 147.44 167.585 144.539 167.585 141.424C167.585 138.309 168.375 135.429 169.953 132.784C171.575 130.139 173.751 128.048 176.481 126.512C179.212 124.933 182.177 124.144 185.377 124.144C188.577 124.144 191.521 124.933 194.209 126.512C196.94 128.048 199.095 130.139 200.673 132.784C202.252 135.429 203.041 138.309 203.041 141.424C203.041 144.539 202.252 147.44 200.673 150.128C199.095 152.773 196.94 154.885 194.209 156.464C191.521 158 188.577 158.768 185.377 158.768ZM185.377 152.112C187.169 152.112 188.833 151.643 190.369 150.704C191.905 149.723 193.121 148.421 194.017 146.8C194.956 145.136 195.425 143.344 195.425 141.424C195.425 139.504 194.977 137.733 194.081 136.112C193.185 134.491 191.948 133.211 190.369 132.272C188.833 131.291 187.169 130.8 185.377 130.8C183.543 130.8 181.857 131.291 180.321 132.272C178.785 133.211 177.548 134.491 176.609 136.112C175.713 137.733 175.265 139.504 175.265 141.424C175.265 143.344 175.713 145.136 176.609 146.8C177.548 148.421 178.785 149.723 180.321 150.704C181.857 151.643 183.543 152.112 185.377 152.112ZM248.542 124.144C250.804 124.144 252.852 124.699 254.686 125.808C256.564 126.875 258.014 128.389 259.038 130.352C260.105 132.272 260.638 134.469 260.638 136.944V158H253.022V138.224C253.022 136.048 252.425 134.277 251.23 132.912C250.036 131.504 248.5 130.8 246.622 130.8C244.489 130.8 242.74 131.461 241.374 132.784C240.009 134.064 239.326 135.707 239.326 137.712V158H231.774V138.224C231.774 136.048 231.156 134.277 229.918 132.912C228.724 131.504 227.188 130.8 225.31 130.8C223.22 130.8 221.492 131.461 220.126 132.784C218.761 134.064 218.078 135.707 218.078 137.712V158H210.27V124.912H218.078V129.392C218.932 127.771 220.169 126.491 221.79 125.552C223.412 124.613 225.246 124.144 227.294 124.144C229.897 124.144 232.201 124.848 234.206 126.256C236.212 127.664 237.641 129.584 238.494 132.016C238.964 129.627 240.094 127.728 241.886 126.32C243.721 124.869 245.94 124.144 248.542 124.144Z" fill="white"/>
</g>
<defs>
<clipPath id="clip0_302_3">
<rect width="279" height="279" rx="30" fill="white"/>
</clipPath>
</defs>
</svg>
