<?xml version="1.0" encoding="UTF-8"?>
<svg version="1.1" xmlns="http://www.w3.org/2000/svg" width="62" height="50">
<path d="M0 0 C4.21753836 1.04215275 8.11056236 2.54390383 12.1171875 4.20703125 C13.26767578 4.66335938 13.26767578 4.66335938 14.44140625 5.12890625 C15.17488281 5.43054688 15.90835938 5.7321875 16.6640625 6.04296875 C17.32760742 6.31415527 17.99115234 6.5853418 18.67480469 6.86474609 C20.3671875 7.83203125 20.3671875 7.83203125 22.3671875 10.83203125 C22.21494863 18.22407422 19.35667492 24.47994889 16.4921875 31.20703125 C15.82123047 32.84478516 15.82123047 32.84478516 15.13671875 34.515625 C11.75057821 42.57643745 11.75057821 42.57643745 8.3671875 44.83203125 C4.21284937 44.55961563 1.24610615 44.25238365 -2.5078125 42.45703125 C-6.98880559 41.56083263 -9.33695726 43.5662335 -13.23828125 45.68359375 C-15.6328125 46.83203125 -15.6328125 46.83203125 -18.9453125 47.14453125 C-25.20945789 44.08529746 -28.37755101 34.78765237 -31.4453125 28.76953125 C-31.85201172 28.00576172 -32.25871094 27.24199219 -32.67773438 26.45507812 C-35.05835181 21.77786505 -36.40410986 18.20428506 -35.6328125 12.83203125 C-32.71159753 9.32022995 -28.83189225 7.65577658 -24.8203125 5.64453125 C-24.12099609 5.27650391 -23.42167969 4.90847656 -22.70117188 4.52929688 C-18.5473109 2.43488054 -15.39315591 1.18573645 -10.6328125 1.83203125 C-9.6428125 2.49203125 -8.6528125 3.15203125 -7.6328125 3.83203125 C-6.9315625 3.15140625 -6.2303125 2.47078125 -5.5078125 1.76953125 C-2.6328125 -0.16796875 -2.6328125 -0.16796875 0 0 Z " fill="#E5EAF1" transform="translate(37.6328125,1.16796875)"/>
</svg>
